<svg xmlns="http://www.w3.org/2000/svg" aria-hidden="true" overflow="hidden" style="position:absolute;width:0;height:0">
  <defs>
    <symbol id="icon-star-1" viewBox="0 0 32 32">
      <path fill="var(--color1, #2b7fff)" d="m24.979 0-3.491 14.321 10.184 10.657-14.321-3.491L6.694 31.671l3.491-14.321L.001 6.693l14.321 3.491L24.979 0z"/>
    </symbol>
    <symbol id="icon-star-2" viewBox="0 0 32 32">
      <path fill="var(--color2, #011f4a)" d="M6.693 0 17.35 10.184l14.321-3.491L21.487 17.35l3.491 14.321-10.657-10.184L0 24.978l10.184-10.657L6.693 0z"/>
    </symbol>
    <symbol id="icon-advantage-1" viewBox="0 0 29 32">
      <path fill="var(--color1, #2b7fff)" d="M14.612.072c-1.145 0-2.215.522-3.127 1.376S9.793 3.492 9.142 4.933a18.01 18.01 0 0 0-.391.939 18.142 18.142 0 0 0-1.011-.131 14.909 14.909 0 0 0-1.15-.072c-1.12-.027-2.143.087-3.04.359-1.196.363-2.182 1.028-2.755 2.02s-.656 2.179-.372 3.396c.284 1.217.924 2.488 1.847 3.772.194.269.401.539.619.81-.214.264-.42.533-.618.809C1.348 18.119.708 19.39.424 20.607s-.201 2.404.372 3.396 1.559 1.658 2.755 2.02 2.616.444 4.19.287c.33-.033.667-.077 1.01-.131.122.317.252.631.392.941.651 1.441 1.431 2.631 2.343 3.485s1.982 1.376 3.127 1.376c1.145 0 2.215-.522 3.127-1.376s1.692-2.044 2.343-3.485c.14-.31.27-.624.392-.941a17.9 17.9 0 0 0 1.009.131c1.573.157 2.994.076 4.19-.287s2.182-1.028 2.755-2.02.656-2.179.372-3.396-.924-2.488-1.847-3.772a17.818 17.818 0 0 0-.618-.809c.214-.264.42-.534.619-.809.923-1.284 1.563-2.555 1.847-3.772s.201-2.404-.372-3.396-1.559-1.658-2.755-2.02c-.897-.272-1.92-.385-3.039-.359-.373.009-.757.033-1.15.072-.33.033-.667.077-1.01.131-.122-.317-.252-.63-.391-.939-.651-1.441-1.431-2.631-2.343-3.485S15.76.073 14.615.073zm0 1.274c.764 0 1.513.336 2.256 1.032s1.452 1.749 2.053 3.08c.098.217.191.436.279.657-1.46.325-3.007.823-4.588 1.488a27.09 27.09 0 0 0-4.587-1.488c.09-.226.183-.446.279-.658.601-1.331 1.31-2.384 2.053-3.08s1.492-1.031 2.256-1.031zM6.186 6.941a13.553 13.553 0 0 1 1.428.068c.232.023.47.053.711.088a27.024 27.024 0 0 0-1.005 4.717 27.01 27.01 0 0 0-3.583 3.229 15.801 15.801 0 0 1-.431-.571c-.852-1.185-1.409-2.326-1.641-3.318s-.147-1.808.235-2.469c.382-.662 1.047-1.143 2.021-1.438.639-.194 1.405-.298 2.266-.306zm16.852 0c.861.008 1.626.112 2.266.306.974.295 1.639.776 2.021 1.438s.466 1.478.235 2.469c-.231.991-.789 2.132-1.641 3.318-.14.194-.283.384-.431.571a27.13 27.13 0 0 0-3.582-3.229 27.056 27.056 0 0 0-1.005-4.718 14.236 14.236 0 0 1 1.763-.154c.125-.003.25-.004.375-.003zm-3.404.385c.339 1.053.619 2.214.829 3.457a34.473 34.473 0 0 0-4.237-2.446 24.633 24.633 0 0 1 3.408-1.01zm-10.044 0a24.76 24.76 0 0 1 3.407 1.01 34.599 34.599 0 0 0-4.236 2.445c.209-1.243.49-2.404.829-3.456zm5.022 1.668c1.037.457 2.089.989 3.138 1.595s2.037 1.252 2.951 1.921c.122 1.127.188 2.304.188 3.516s-.066 2.388-.188 3.514a32.84 32.84 0 0 1-6.09 3.516c-1.037-.457-2.09-.989-3.139-1.595s-2.036-1.251-2.95-1.92c-.122-1.127-.188-2.304-.188-3.515s.066-2.39.188-3.517a32.822 32.822 0 0 1 6.088-3.515zm.086 1.917-3.648 2.251 3.648 2.251 3.648-2.251-3.648-2.251zm-7.552 2.668a35.027 35.027 0 0 0 0 4.892 24.586 24.586 0 0 1-2.579-2.446 24.69 24.69 0 0 1 2.579-2.446zm14.932.001a24.77 24.77 0 0 1 2.578 2.445 24.666 24.666 0 0 1-2.578 2.445 34.992 34.992 0 0 0 0-4.891zm-11.85.572v4.445l3.831 2.364v-4.445l-3.831-2.365zm8.936.002-3.83 2.364v4.443l3.83-2.364v-4.443zM3.736 17.007a26.94 26.94 0 0 0 3.583 3.229c.214 1.701.556 3.29 1.005 4.716-.241.035-.478.064-.71.088-1.453.145-2.72.057-3.693-.238s-1.639-.776-2.021-1.438c-.382-.662-.466-1.478-.235-2.469s.789-2.132 1.641-3.318c.139-.193.283-.384.43-.57zm21.752 0c.15.191.295.381.43.57.852 1.185 1.409 2.326 1.641 3.318s.147 1.808-.235 2.469c-.382.662-1.047 1.143-2.021 1.438s-2.241.383-3.693.238a15.414 15.414 0 0 1-.709-.088 27.036 27.036 0 0 0 1.005-4.718 27.057 27.057 0 0 0 3.582-3.228zm-5.025 4.26a24.682 24.682 0 0 1-.829 3.457 24.781 24.781 0 0 1-3.408-1.011 35.272 35.272 0 0 0 4.236-2.446zm-11.702.001a35.248 35.248 0 0 0 4.235 2.446c-1.181.44-2.326.778-3.407 1.01a24.773 24.773 0 0 1-.829-3.456zm5.889.058.046.029.046-.029h-.092zm-.038 3.121a27.128 27.128 0 0 0 4.588 1.488c-.088.222-.181.442-.279.659-.601 1.33-1.31 2.384-2.053 3.08s-1.492 1.032-2.256 1.032c-.764 0-1.513-.336-2.256-1.032s-1.452-1.749-2.053-3.08a16.45 16.45 0 0 1-.279-.659 27.128 27.128 0 0 0 4.588-1.488z"/>
    </symbol>
    <symbol id="icon-advantage-2" viewBox="0 0 39 32">
      <path fill="var(--color1, #2b7fff)" d="M11.984 10.581H-.169a.662.662 0 0 0-.675.648v3.887c0 .358.302.648.675.648h.675v14.899c0 .358.302.648.675.648h9.452c.373 0 .675-.29.675-.648V15.764h.675c.373 0 .675-.29.675-.648v-3.887a.662.662 0 0 0-.675-.648zM4.558 22.889v-1.296h4.051v-1.296H4.558v-1.296h5.401v8.421H4.558v-3.239h1.35v-1.296h-1.35zm5.401-5.183H3.883a.662.662 0 0 0-.675.648v9.717c0 .358.302.648.675.648h6.076v1.296H1.857V15.764h8.102v1.943zm1.35-3.239H.506v-2.591h10.803v2.591zm9.621-3.765V5.966a.67.67 0 0 0-.675-.667h-.675V1.964h1.35V.63h-7.427v1.334h4.726v3.335h-.675a.67.67 0 0 0-.675.667v4.736c-1.539.31-2.701 1.657-2.701 3.267v16.673a.67.67 0 0 0 .675.667h8.102a.67.67 0 0 0 .675-.667V13.969c0-1.61-1.162-2.957-2.701-3.267zm-2.7-4.069h1.35v4.002h-1.35V6.633zm-.675 5.336h2.701c1.117 0 2.026.898 2.026 2.001v.667H15.53v-.667c0-1.103.909-2.001 2.026-2.001zm4.726 15.339h-6.752v-1.334h2.701V24.64h-2.701v-8.67h6.752v11.338zm-6.752 2.668v-1.334h6.752v1.334h-6.752zm22.66-20.224H26.796a.643.643 0 0 0-.633.653v20.251c0 .361.283.653.633.653h11.393c.35 0 .633-.292.633-.653V10.405a.643.643 0 0 0-.633-.653zm-.633 20.251H27.428V11.058h10.128v18.945z"/>
      <path fill="var(--color1, #2b7fff)" d="M9.284 23.018H7.596v.829h1.688v-.829zm11.815 1.658h-1.688v1.658h1.688v-1.658zm-2.11-1.658c1.629 0 2.954-1.302 2.954-2.902s-1.325-2.902-2.954-2.902c-1.629 0-2.954 1.302-2.954 2.902s1.325 2.902 2.954 2.902zm0-4.353c.815 0 1.477.651 1.477 1.451s-.662 1.451-1.477 1.451c-.814 0-1.477-.651-1.477-1.451s.662-1.451 1.477-1.451zm11.921-2.28h3.165c1.222 0 2.215-.93 2.215-2.073s-.994-2.073-2.215-2.073H30.91c-1.222 0-2.215.93-2.215 2.073s.994 2.073 2.215 2.073zm4.114-2.073c0 .49-.426.888-.949.888h-.95v-1.777h.95c.523 0 .949.399.949.888zm-4.114-.888h.95v1.777h-.95c-.523 0-.949-.399-.949-.888s.426-.888.949-.888zm0 9.594h3.165c1.222 0 2.215-1.116 2.215-2.487s-.994-2.488-2.215-2.488H30.91c-1.222 0-2.215 1.116-2.215 2.488s.994 2.487 2.215 2.487zm4.114-2.487c0 .588-.426 1.066-.949 1.066h-.95v-2.132h.95c.523 0 .949.478.949 1.066zm-4.114-1.066h.95v2.132h-.95c-.523 0-.949-.478-.949-1.066s.426-1.066.949-1.066zm0 9.357h3.165c1.222 0 2.215-1.116 2.215-2.487s-.994-2.488-2.215-2.488H30.91c-1.222 0-2.215 1.116-2.215 2.488s.994 2.487 2.215 2.487zm4.114-2.487c0 .588-.426 1.066-.949 1.066h-.95v-2.132h.95c.523 0 .949.478.949 1.066zm-4.114-1.066h.95v2.132h-.95c-.523 0-.949-.478-.949-1.066s.426-1.066.949-1.066z"/>
    </symbol>
    <symbol id="icon-advantage-3" viewBox="0 0 39 32">
      <path fill="var(--color1, #2b7fff)" d="M37.805 7.546c-.337-.306-.745-.502-1.178-.566s-.873.004-1.272.2l-8.417 4.107c-.037.022-.078.036-.12.041s-.085 0-.125-.014c-.04-.014-.078-.036-.11-.066s-.059-.066-.078-.108l-4.917-9.717c-.199-.402-.493-.737-.851-.97s-.766-.357-1.182-.357c-.416 0-.824.123-1.182.357s-.652.569-.851.97l-4.917 9.717c-.019.041-.046.078-.078.108s-.07.052-.11.066c-.04.014-.083.018-.125.014s-.083-.018-.12-.041L3.755 7.18c-.398-.198-.838-.27-1.271-.207s-.841.259-1.178.564c-.337.306-.589.709-.728 1.164s-.159.944-.057 1.412l4.25 19.855c.072.336.205.652.391.929s.422.51.692.684c.356.24.766.367 1.183.367.214-.002.426-.033.633-.092a40.736 40.736 0 0 1 23.75-.018c.303.096.621.124.934.081s.615-.155.888-.33.51-.409.698-.687c.188-.279.323-.596.396-.934l4.233-19.855c.106-.464.09-.951-.046-1.405s-.386-.857-.721-1.161zm-1.166 2.053-4.25 19.855a.424.424 0 0 1-.15.238.388.388 0 0 1-.267.037 42.554 42.554 0 0 0-24.833 0 .31.31 0 0 1-.263-.038c-.039-.026-.073-.06-.099-.101s-.045-.087-.055-.136L2.472 9.599a.417.417 0 0 1 .071-.313c.032-.044.072-.079.117-.104s.095-.039.146-.04l.133.037 8.433 4.125c.532.263 1.134.297 1.687.093s1.016-.63 1.296-1.193l4.917-9.717a.337.337 0 0 1 .117-.141.297.297 0 0 1 .334 0c.05.034.09.083.117.141l4.917 9.717c.28.563.743.989 1.296 1.193s1.156.171 1.687-.093l8.433-4.125c.057-.028.12-.037.182-.028s.12.039.168.083c.049.043.086.1.106.165s.024.135.011.202zm-10.75 13.934c-.028.271-.146.521-.33.703s-.422.284-.67.287h-.1a47.572 47.572 0 0 0-10.467 0c-.263.031-.526-.054-.732-.236s-.338-.447-.368-.736c-.023-.291.058-.581.226-.807s.41-.371.674-.403a46.798 46.798 0 0 1 10.867 0c.261.032.5.175.668.397s.251.507.232.795z"/>
    </symbol>
    <symbol id="icon-logo" viewBox="0 0 63 32">
      <path fill="var(--color1, #2b7fff)" d="M1.332.624h5.004c1.18 0 2.087.089 2.721.266.647.165 1.104.438 1.37.818.266.368.4.888.4 1.56V4.79c0 .343-.139.666-.419.97a2.06 2.06 0 0 1-.951.628v.095c.482.051.92.26 1.313.628.406.355.609.755.609 1.199v1.903c0 1.002-.4 1.712-1.199 2.131s-2.036.628-3.71.628H1.333V.623zm5.004 5.024c.469 0 .818-.038 1.046-.114s.381-.197.457-.362c.089-.178.133-.431.133-.761v-.609c0-.292-.038-.507-.114-.647-.076-.152-.235-.26-.476-.323-.228-.063-.596-.095-1.104-.095H4.299v2.911h2.036zm.076 5.213c.723 0 1.237-.082 1.541-.247s.457-.431.457-.799v-.989c0-.457-.12-.78-.361-.97-.228-.19-.641-.285-1.237-.285H4.3v3.292h2.112zm11.507 2.302c-3.26 0-4.89-.996-4.89-2.987V6.865c0-1.154.368-1.992 1.104-2.512.748-.52 1.896-.78 3.444-.78 1.459 0 2.524.254 3.197.761.685.495 1.027 1.338 1.027 2.531V9.11h-5.974v.837c0 .533.19.913.571 1.142s1.066.342 2.055.342c.913 0 1.941-.133 3.082-.4v1.77a17.295 17.295 0 0 1-3.615.361zm1.237-5.632V6.199a.748.748 0 0 0-.381-.685c-.241-.152-.653-.228-1.237-.228-.672 0-1.123.076-1.351.228a.785.785 0 0 0-.361.685v1.332h3.33zm7.374 5.632c-.863 0-1.509-.076-1.941-.228a1.56 1.56 0 0 1-.894-.856c-.165-.419-.247-1.04-.247-1.865 0-.736.089-1.313.266-1.731.19-.419.488-.717.894-.894.419-.19.989-.285 1.712-.285h3.12v-.628c0-.393-.057-.685-.171-.875-.101-.19-.298-.323-.59-.4-.279-.076-.704-.114-1.275-.114-.786 0-1.865.076-3.235.228v-1.75c1.002-.127 2.175-.19 3.52-.19 1.18 0 2.087.089 2.721.266.647.178 1.11.482 1.389.913s.419 1.059.419 1.884v6.336h-2.721v-.837a1.794 1.794 0 0 1-.875.78c-.368.165-1.066.247-2.093.247zm1.085-1.731c.558 0 .958-.019 1.199-.057.178-.025.298-.063.361-.114a.556.556 0 0 0 .19-.247c.051-.089.076-.222.076-.4V8.825h-1.903c-.431 0-.736.032-.913.095a.515.515 0 0 0-.361.342c-.063.165-.095.463-.095.894 0 .419.032.71.095.875s.184.273.361.323c.19.051.52.076.989.076zm10.245 1.731c-1.18 0-2.011-.209-2.493-.628-.469-.431-.704-1.104-.704-2.017V3.763h2.778v6.374c0 .355.032.622.095.799a.697.697 0 0 0 .419.381c.216.076.539.114.97.114.545 0 .945-.032 1.199-.095.254-.076.425-.203.514-.381s.133-.45.133-.818V3.763h2.778v9.209h-2.74v-1.123c-.203.875-1.186 1.313-2.949 1.313zm12.724 0c-.469 0-.863-.019-1.18-.057s-.634-.114-.951-.228a2.401 2.401 0 0 1-.875-.476c-.216-.203-.393-.482-.533-.837a3.32 3.32 0 0 1-.228-1.275V5.476h-1.865V3.764h1.865V1.1h2.778v2.664h2.531v1.712h-2.531v4.338c0 .444.038.78.114 1.008a.808.808 0 0 0 .438.476c.216.089.545.133.989.133.178 0 .507-.032.989-.095v1.731c-.596.063-1.11.095-1.541.095zm5.751-.266-3.672-9.133h3.025l2.074 6.507 1.884-6.507h2.873l-5.042 13.167h-2.816l1.674-4.034zM.761 29.328l6.431-8.429H.951v-2.112h9.894v1.789l-6.431 8.429h6.545v2.131H.761v-1.808zm16.521 1.997c-.571 0-1.04-.019-1.408-.057s-.761-.114-1.18-.228c-.457-.127-.824-.304-1.104-.533-.279-.241-.514-.577-.704-1.008-.19-.419-.285-.926-.285-1.522v-2.721c0-.609.095-1.142.285-1.598s.438-.812.742-1.066c.266-.216.615-.393 1.046-.533a5.539 5.539 0 0 1 1.294-.285c.482-.025.92-.038 1.313-.038.584 0 1.046.019 1.389.057a5.32 5.32 0 0 1 1.161.228c.457.14.824.33 1.104.571.292.241.539.584.742 1.027.19.457.285 1.002.285 1.636v2.721c0 .571-.095 1.072-.285 1.503-.178.431-.412.767-.704 1.008-.254.216-.603.393-1.046.533a6.621 6.621 0 0 1-1.275.247c-.381.038-.837.057-1.37.057zm0-1.731c.52 0 .913-.038 1.18-.114.266-.089.45-.222.552-.4.114-.178.171-.438.171-.78v-3.482c0-.507-.133-.863-.4-1.066s-.767-.304-1.503-.304c-.736 0-1.237.101-1.503.304s-.4.558-.4 1.066V28.3c0 .343.051.603.152.78.114.178.304.311.571.4.266.076.66.114 1.18.114zm6.846-7.668h2.74v1.123c.216-.875 1.199-1.313 2.949-1.313 1.18 0 2.004.216 2.474.647.482.419.723 1.085.723 1.998v6.755h-2.778v-6.393c0-.355-.038-.622-.114-.799-.063-.178-.203-.304-.419-.381-.203-.076-.52-.114-.951-.114-.545 0-.945.038-1.199.114-.254.063-.425.184-.514.361s-.133.45-.133.818v6.393h-2.778v-9.209zm15.94 9.399c-3.26 0-4.89-.996-4.89-2.987v-3.311c0-1.154.368-1.992 1.104-2.512.748-.52 1.896-.78 3.444-.78 1.459 0 2.524.254 3.197.761.685.495 1.027 1.338 1.027 2.531v2.245h-5.974v.837c0 .533.19.913.571 1.142s1.066.343 2.055.343c.913 0 1.941-.133 3.082-.4v1.77a17.295 17.295 0 0 1-3.615.361zm1.236-5.632v-1.332a.748.748 0 0 0-.381-.685c-.241-.152-.653-.228-1.237-.228-.672 0-1.123.076-1.351.228a.785.785 0 0 0-.361.685v1.332h3.33z"/>
    </symbol>
    <symbol id="icon-we-bg" viewBox="0 0 31 32">
      <path d="M21.557 28.404c-3.636 1.757-7.082 3.918-11.102 3.541-4.193-.393-7.9-2.529-10.789-5.593-3.291-3.491-6.325-7.599-6.171-12.395C-6.338 8.759-4.117 3.09.491.677c4.332-2.268 9.042 1.946 13.916 2.33 5.511.434 11.6-3.384 15.952.024 4.785 3.747 7.382 10.948 5.39 16.69-1.889 5.446-9.001 6.174-14.192 8.682z"/>
    </symbol>
    <symbol id="icon-fb" viewBox="0 0 19 32">
      <path d="M18.091.668a41.312 41.312 0 0 0-4.476-.23c-4.956 0-8.036 3.157-8.036 8.238v3.45H1.416a.738.738 0 0 0-.737.737v5.674a.738.738 0 0 0 .737.737h4.163v11.377a.738.738 0 0 0 .737.737h5.862a.738.738 0 0 0 .737-.737V19.274h4.15a.736.736 0 0 0 .731-.641l.732-5.674a.751.751 0 0 0-.177-.582.743.743 0 0 0-.554-.251h-4.882V9.239c0-1.429.287-2.026 2.075-2.026h3.005a.738.738 0 0 0 .737-.737V1.399a.736.736 0 0 0-.641-.731zm-.833 5.069-2.269.001c-3.179 0-3.547 1.998-3.547 3.5v3.625a.739.739 0 0 0 .735.737h4.784l-.544 4.2h-4.238a.738.738 0 0 0-.737.737v11.374H7.053V18.537a.738.738 0 0 0-.737-.737H2.154v-4.2h4.162a.738.738 0 0 0 .737-.737V8.675c0-4.235 2.454-6.764 6.562-6.764 1.487 0 2.829.081 3.643.152v3.674z"/>
    </symbol>
    <symbol id="icon-instagram" viewBox="0 0 32 32">
      <path d="M16 8.897a7.106 7.106 0 0 0-6.562 4.385 7.109 7.109 0 0 0 1.54 7.741 7.109 7.109 0 0 0 10.929-1.076 7.101 7.101 0 0 0-5.906-11.048zm0 12.353a5.252 5.252 0 0 1-5.15-6.274 5.248 5.248 0 0 1 9.514-1.892c.577.863.885 1.878.885 2.917a5.265 5.265 0 0 1-5.25 5.25zM22.794.868H9.206A8.338 8.338 0 0 0 .868 9.206v13.588a8.338 8.338 0 0 0 8.338 8.338h13.588a8.338 8.338 0 0 0 8.338-8.338V9.206A8.338 8.338 0 0 0 22.794.868zm6.485 21.926a6.488 6.488 0 0 1-6.485 6.485H9.206a6.486 6.486 0 0 1-6.485-6.485V9.206a6.486 6.486 0 0 1 6.485-6.485h13.588a6.488 6.488 0 0 1 6.485 6.485v13.588zM25.574 7.971a1.55 1.55 0 0 1-.953 1.427 1.54 1.54 0 0 1-1.683-.335 1.547 1.547 0 0 1-.335-1.683 1.548 1.548 0 0 1 1.427-.953 1.547 1.547 0 0 1 1.544 1.544z"/>
    </symbol>
    <symbol id="icon-tel" viewBox="0 0 29 32">
      <path d="m26.637 23.305-.182-.227c-1.441-1.821-2.645-2.769-3.678-2.894-.893-.122-1.757.496-2.675 1.131l-.981.613a2.205 2.205 0 0 1-.343.139c-.574.162-2.023.258-2.843-.493-.955-.874-2.436-2.472-3.588-3.87-1.1-1.446-2.31-3.249-2.941-4.385-.533-.962-.087-2.307.211-2.806.059-.098.136-.195.221-.29l.865-.799c.013-.013.018-.028.029-.039.008-.008.022-.006.032-.013.781-.659 1.589-1.338 1.7-2.211.13-1.025-.507-2.411-1.95-4.231l-.176-.227C9.445 1.558 8.094-.174 6.153.112 5.39.225 4.708.486 4.005.927c-.007.004-.011.013-.017.017s-.013.004-.018.008l-.979.725c-.01.006-.015.018-.025.027-.007.007-.018.008-.027.015-.113.095-.227.193-.339.294-.993.885-3.142 3.454-1.676 8.205.946 3.069 2.898 6.65 5.657 10.377l-.027.022 1.522 1.896.013-.01c2.992 3.539 6.037 6.275 8.827 7.931 1.862 1.106 3.489 1.471 4.827 1.471 1.761 0 3.023-.633 3.655-1.044l.398-.266c.045-.031.077-.074.109-.113l.867-.652c.01-.008.015-.02.025-.028.004-.004.011-.003.017-.007.616-.563 1.043-1.152 1.34-1.851.769-1.791-.608-3.506-1.518-4.641zm.489 4.202c-.231.543-.568 1.005-1.056 1.453l-1.289.97c-1.168.759-3.664 1.697-7.29-.456-2.79-1.656-5.862-4.456-8.884-8.098l-.818-1.033c-2.846-3.774-4.848-7.389-5.793-10.452-1.228-3.983.319-6.119 1.355-7.042.105-.095.21-.183.314-.272l.004-.004.939-.696c.571-.361 1.1-.563 1.709-.655 1.301-.196 2.359 1.176 3.136 2.173l.182.231c1.613 2.034 1.768 3.002 1.718 3.396-.056.438-.722 1-1.31 1.494l-.083.07-.007.01-.013.007-.895.827c-.006.006-.008.013-.014.02s-.017.01-.022.017a3.058 3.058 0 0 0-.354.472c-.503.841-.977 2.58-.228 3.926.654 1.176 1.898 3.034 3.042 4.535 1.196 1.45 2.72 3.097 3.709 4 .741.676 1.771.903 2.663.903.477 0 .916-.066 1.247-.16.175-.05.356-.123.542-.214.011-.006.017-.015.028-.022.006-.003.014-.001.02-.006l1.039-.65c.034-.022.056-.052.084-.08l.013.014c.64-.444 1.369-.965 1.826-.889.405.049 1.323.438 2.939 2.478l.186.234c.787.981 1.865 2.325 1.362 3.5z"/>
    </symbol>
    <svg id="slider-arrow" fill="none" viewBox="0 0 18 16">
      <path fill="#011C44" d="M.531 8.707a1 1 0 0 1 0-1.414L6.895.929a1 1 0 1 1 1.414 1.414L2.652 8l5.657 5.657a1 1 0 1 1-1.414 1.414L.53 8.707ZM18 9H1.238V7H18v2Z"/>
    </svg>    
  </defs>
</svg>
